<svg width="1440" height="963" viewBox="0 0 1440 963" fill="none" xmlns="http://www.w3.org/2000/svg">
<path d="M250.815 221.341C246.235 247.75 247.523 249.824 274.01 258.681C246.484 253.843 244.362 255.041 235.574 280.381C240.153 253.973 238.865 251.899 212.378 243.042C239.905 247.88 242.027 246.682 250.815 221.341Z" fill="#BCD500"/>
<path d="M1217.87 651.981C1210.66 693.566 1212.69 696.831 1254.4 710.778C1211.05 703.16 1207.71 705.046 1193.87 744.949C1201.08 703.364 1199.06 700.098 1157.35 686.152C1200.69 693.77 1204.03 691.883 1217.87 651.981Z" fill="#BCD500"/>
<path d="M890.059 225.075C917.591 286.912 893.883 364.687 833.015 440.515C772.166 516.319 674.267 590.052 553.734 643.717C433.201 697.382 312.899 720.798 215.849 715.295C118.77 709.79 45.1075 675.367 17.5757 613.529C-9.95595 551.692 13.7531 473.917 74.6206 398.09C135.47 322.285 233.369 248.552 353.902 194.887C474.435 141.222 594.737 117.807 691.787 123.31C788.866 128.815 862.527 163.238 890.059 225.075Z" stroke="#BCD500"/>
<path d="M1421.8 348.831C1449.33 410.668 1425.63 488.443 1364.76 564.271C1303.91 640.076 1206.01 713.809 1085.48 767.474C964.945 821.138 844.643 844.554 747.593 839.051C650.514 833.546 576.852 799.123 549.32 737.286C521.788 675.448 545.497 597.674 606.365 521.846C667.214 446.042 765.113 372.308 885.646 318.644C1006.18 264.979 1126.48 241.563 1223.53 247.066C1320.61 252.571 1394.27 286.994 1421.8 348.831Z" stroke="#BCD500"/>
</svg>
